<svg width="500.00000000000006" height="500.00000000000006" xmlns="http://www.w3.org/2000/svg" fill="#000000">
 <defs>
  <linearGradient spreadMethod="pad" y2="0" x2="1" y1="0.22891" x1="0.34375" id="svg_7">
   <stop offset="0" stop-color="#8CD79F"/>
   <stop offset="1" stop-color="#732860"/>
  </linearGradient>
  <linearGradient y2="0" x2="1" y1="0" x1="0" id="svg_9">
   <stop offset="0" stop-color="#0000ff"/>
   <stop stop-opacity="0.99609" offset="1" stop-color="#bf00ff"/>
  </linearGradient>
  <linearGradient y2="0" x2="1" y1="0" x1="0" id="svg_16">
   <stop offset="0" stop-opacity="0.99609" stop-color="#00fff6"/>
   <stop offset="1" stop-opacity="0.99609" stop-color="#7fff00"/>
  </linearGradient>
  <linearGradient y2="0" x2="1" y1="0" x1="0" id="svg_25">
   <stop offset="0" stop-color="rgba(255,255,255,0)"/>
   <stop offset="1" stop-color="rgba(255,255,255,0)"/>
  </linearGradient>
 </defs>
 <g>
  <title>Layer 1</title>
  <rect rx="100" id="svg_6" height="348.52149" width="378.9158" y="79.45956" x="33.04113" fill="url(#svg_9)"/>
  <rect stroke="url(#svg_7)" rx="100" id="svg_5" height="283.88696" width="316.45824" y="111.64899" x="65.26551" fill="url(#svg_16)"/>
  <path stroke="url(#svg_25)" fill="#083734" id="svg_1" d="m276.75869,136.51307c-4.33829,-0.14878 -8.87928,0.62254 -13.43212,2.12791c-9.10579,3.01063 -18.64775,8.87765 -28.44005,17.00112c-3.83763,3.18359 -7.71009,6.82271 -11.59557,10.68388c-3.79979,-3.76317 -7.59268,-7.31571 -11.34557,-10.42899c-9.78445,-8.11688 -19.30054,-13.97511 -28.38568,-16.97899c-9.08515,-3.00382 -18.12495,-3.09688 -25.54932,1.27453c-7.42437,4.37147 -11.8642,12.39609 -13.85594,21.92193c-1.99179,9.5259 -1.78324,20.87 0.21733,33.57007c0.6949,4.41131 1.69678,9.0392 2.82552,13.75387c-4.24231,1.31113 -8.36204,2.68974 -12.18236,4.21151c-11.52941,4.59238 -21.06926,10.08648 -28.01623,16.62428c-6.94691,6.5378 -11.43254,14.47259 -11.43254,23.1854c0,8.71281 4.48563,16.63648 11.43254,23.17428c6.94697,6.5378 16.48682,12.04302 28.01623,16.63546c4.08501,1.62714 8.50776,3.09228 13.07351,4.47747c-1.64231,6.25799 -2.97291,12.33072 -3.87969,18.08726c-2.00214,12.71022 -2.21357,24.0558 -0.21733,33.60327c1.99624,9.54752 6.43835,17.61753 13.89945,22.01062c7.46109,4.39303 16.54129,4.28516 25.64708,1.27453c9.10579,-3.01069 18.63685,-8.86665 28.4292,-16.99005c3.80224,-3.15425 7.64844,-6.75246 11.49769,-10.57306c3.86762,3.84148 7.73285,7.46012 11.55206,10.62844c9.7845,8.11694 19.31144,13.97517 28.39659,16.97899c9.08515,3.00388 18.11404,3.09694 25.53841,-1.27453c7.42443,-4.37147 11.86426,-12.39603 13.85599,-21.92193c1.99173,-9.5259 1.77234,-20.87 -0.22824,-33.57007c-0.90923,-5.77215 -2.24067,-11.85389 -3.89054,-18.13158c4.71659,-1.41889 9.279,-2.92347 13.48648,-4.59936c11.52941,-4.59243 21.06926,-10.09766 28.01623,-16.63546c6.94691,-6.5378 11.43254,-14.46147 11.43254,-23.17428c0,-8.71281 -4.48563,-16.6476 -11.43254,-23.1854c-6.94697,-6.5378 -16.48682,-12.0319 -28.01623,-16.62428c-3.87513,-1.54356 -8.05812,-2.94015 -12.36709,-4.26695c1.13792,-4.74354 2.14819,-9.40458 2.84722,-13.8425c2.00219,-12.71028 2.21368,-24.06687 0.21739,-33.61439c-1.99624,-9.54752 -6.4492,-17.60647 -13.9103,-21.9995c-3.73057,-2.19652 -7.86588,-3.26479 -12.20412,-3.41351zm-0.51079,11.54833c2.7223,0.07592 5.04465,0.7366 7.03121,1.90627c3.97311,2.33934 6.90986,6.89228 8.4766,14.3856c1.56674,7.49326 1.51261,17.61742 -0.33691,29.35851c-0.6332,4.01994 -1.55267,8.28036 -2.59727,12.64559c-11.37834,-2.79262 -23.84609,-4.86611 -37.13398,-6.08453c-6.6755,-9.43227 -13.53683,-18.01253 -20.45248,-25.63466c3.65635,-3.63998 7.28905,-7.04424 10.83479,-9.9857c9.0457,-7.50404 17.60943,-12.61007 24.75599,-14.97296c3.57328,-1.18147 6.69976,-1.69405 9.42206,-1.61812zm-105.58783,0.03325c2.73805,-0.07797 5.87104,0.43324 9.45466,1.61812c7.1672,2.3697 15.7459,7.47351 24.79944,14.98403c3.47373,2.88171 7.02676,6.2118 10.6066,9.76406c-6.96555,7.68262 -13.87502,16.35276 -20.59375,25.86742c-13.24071,1.24089 -25.66394,3.33401 -36.99271,6.13991c-1.03788,-4.34435 -1.9451,-8.58775 -2.57557,-12.59015c-1.85113,-11.7513 -1.89731,-21.888 -0.32606,-29.40288c1.57131,-7.51488 4.53203,-12.09114 8.54181,-14.45211c2.00492,-1.18045 4.34752,-1.85043 7.08557,-1.9284zm52.80477,34.7116c4.53197,5.02982 9.06673,10.53584 13.56254,16.45807c-4.41808,-0.18788 -8.89018,-0.29927 -13.43212,-0.29927c-4.63235,0 -9.18964,0.11502 -13.69296,0.31033c4.49742,-5.92757 9.02884,-11.43501 13.56254,-16.46914zm0.13042,27.61855c7.56659,0 14.94161,0.31709 22.1152,0.85338c4.93604,7.23008 9.75969,14.9005 14.35587,23.01914c4.03849,7.13362 7.69317,14.25622 11.01957,21.2902c-3.36151,7.12726 -7.07745,14.34622 -11.17175,21.57834c-3.60405,6.36621 -7.36773,12.41266 -11.19339,18.24246c-8.10314,0.69069 -16.49945,1.07502 -25.1255,1.07502c-8.83371,0 -17.4187,-0.40714 -25.70144,-1.13046c-3.76201,-5.74599 -7.46215,-11.71186 -11.00872,-17.97644c-4.0849,-7.21555 -7.78287,-14.41028 -11.13909,-21.52291c3.3703,-7.15285 7.08485,-14.3986 11.19345,-21.65597c4.57209,-8.07608 9.38166,-15.70213 14.29066,-22.89725c7.25083,-0.54838 14.71142,-0.87551 22.36514,-0.87551zm36.44932,2.27199c9.16828,1.167 17.77664,2.7883 25.78841,4.73237c-2.37822,7.95073 -5.30761,16.25538 -8.85696,24.82565c-2.30455,-4.53058 -4.69139,-9.0766 -7.2703,-13.63192c-3.12358,-5.51754 -6.37136,-10.78619 -9.66115,-15.9261zm-73.48548,0.08863c-3.22218,5.04639 -6.39267,10.20717 -9.45466,15.61576c-2.61202,4.61383 -5.04838,9.22101 -7.37897,13.80931c-3.51875,-8.5188 -6.43051,-16.77618 -8.79175,-24.68158c7.95513,-1.94837 16.51703,-3.56303 25.62538,-4.74349zm110.28256,7.65827c3.94429,1.21711 7.75365,2.48722 11.24781,3.87899c10.6283,4.23353 19.03541,9.24655 24.48429,14.37454c5.44883,5.12793 7.81364,10.01827 7.81364,14.76238c0,4.74411 -2.36481,9.63445 -7.81364,14.76238c-5.44889,5.12799 -13.85599,10.14101 -24.48429,14.37454c-3.88292,1.54662 -8.14915,2.94912 -12.58448,4.27796c-3.16392,-9.98008 -7.20231,-20.39193 -12.00848,-31.02094c5.52606,-12.20316 9.99015,-24.10126 13.34515,-35.40984zm-146.67757,0.05544c3.31655,11.19532 7.72366,22.97607 13.17133,35.05513c-4.83772,10.69103 -8.89608,21.16201 -12.07369,31.19833c-4.27903,-1.29388 -8.40065,-2.65842 -12.16066,-4.15607c-10.6283,-4.23353 -19.03541,-9.24655 -24.48429,-14.37454c-5.44883,-5.12793 -7.81364,-10.01827 -7.81364,-14.76238c0,-4.74411 2.36481,-9.63445 7.81364,-14.76238c5.44889,-5.12799 13.85599,-10.14101 24.48429,-14.37454c3.44041,-1.37038 7.18584,-2.62238 11.06303,-3.82355zm73.43118,6.89353c-15.29899,0 -27.82059,12.76986 -27.82059,28.37218c0,15.60231 12.5216,28.37218 27.82059,28.37218c15.29899,0 27.82059,-12.76986 27.82059,-28.37218c0,-15.60231 -12.5216,-28.37218 -27.82059,-28.37218zm0,11.34887c9.28484,0 16.69236,7.55438 16.69236,17.02331c0,9.46893 -7.40751,17.02331 -16.69236,17.02331c-9.28484,0 -16.69236,-7.55438 -16.69236,-17.02331c0,-9.46893 7.40751,-17.02331 16.69236,-17.02331zm53.52204,30.43358c2.91816,7.04317 5.45462,13.93511 7.58545,20.58089c-6.69146,1.58237 -13.81643,2.91564 -21.31102,3.96768c2.15738,-3.5106 4.28793,-7.08669 6.36836,-10.76145c2.60774,-4.60639 5.0298,-9.20671 7.35721,-13.78712zm-107.26141,0.01107c2.33971,4.60883 4.77663,9.22958 7.40072,13.86469c2.05422,3.62857 4.15178,7.17118 6.28133,10.63957c-7.47239,-1.05669 -14.57549,-2.39455 -21.24581,-3.97874c2.12121,-6.62553 4.65895,-13.503 7.56375,-20.52551zm-10.76963,31.54191c10.07005,2.43286 20.98491,4.30168 32.55877,5.51924c7.72767,11.39863 15.77355,21.63554 23.87574,30.58878c-3.62235,3.60185 -7.21254,6.98222 -10.72617,9.89701c-9.04564,7.50404 -17.62023,12.599 -24.76684,14.9619c-7.14655,2.36289 -12.48015,2.05119 -16.45327,-0.28815c-3.97311,-2.33934 -6.89895,-6.89234 -8.4657,-14.3856c-1.5668,-7.49326 -1.52346,-17.60635 0.326,-29.34744c0.83901,-5.32642 2.09294,-11.02991 3.65145,-16.94574zm128.83327,0.04432c1.57042,5.94879 2.82958,11.67895 3.67315,17.03437c1.85113,11.7513 1.89731,21.87693 0.32606,29.39181c-1.57131,7.51488 -4.52112,12.10221 -8.53096,14.46317c-4.00978,2.36096 -9.38389,2.68004 -16.55108,0.31033c-7.1672,-2.3697 -15.7459,-7.48464 -24.79944,-14.99515c-3.53884,-2.93573 -7.1539,-6.33244 -10.80218,-9.96351c8.15483,-8.987 16.26069,-19.27946 24.03872,-30.74392c11.60308,-1.20945 22.5482,-3.06709 32.64574,-5.49711zm-81.7556,6.63864c5.71301,0.31754 11.50131,0.53198 17.43133,0.53198c5.73382,0 11.33444,-0.20156 16.86623,-0.49873c-5.65476,7.78062 -11.4188,14.85414 -17.15963,21.22375c-5.73739,-6.38323 -11.49057,-13.46935 -17.13793,-21.257z"/>
 </g>
</svg>